<mxfile host="app.diagrams.net" modified="2022-03-12T17:40:16.074Z" agent="5.0 (X11)" etag="swvmhO6p-EhBKCj2FvLF" version="17.1.2" type="github">
  <diagram id="2EugZO80VNe8W5lsftwd" name="Page-1">
    <mxGraphModel dx="1354" dy="1788" grid="1" gridSize="10" guides="1" tooltips="1" connect="1" arrows="1" fold="1" page="1" pageScale="1" pageWidth="850" pageHeight="1100" math="0" shadow="0">
      <root>
        <mxCell id="0" />
        <mxCell id="1" parent="0" />
        <mxCell id="z_WxewyYWtBV-kWWetse-1" value="" style="ellipse;whiteSpace=wrap;html=1;aspect=fixed;" vertex="1" parent="1">
          <mxGeometry x="105" y="90" width="320" height="320" as="geometry" />
        </mxCell>
        <mxCell id="z_WxewyYWtBV-kWWetse-2" value="Pond" style="text;html=1;strokeColor=none;fillColor=none;align=center;verticalAlign=middle;whiteSpace=wrap;rounded=0;fontSize=16;" vertex="1" parent="1">
          <mxGeometry x="235" y="100" width="60" height="30" as="geometry" />
        </mxCell>
        <mxCell id="z_WxewyYWtBV-kWWetse-25" style="edgeStyle=orthogonalEdgeStyle;rounded=0;orthogonalLoop=1;jettySize=auto;html=1;exitX=1;exitY=0.5;exitDx=0;exitDy=0;entryX=0.625;entryY=1;entryDx=0;entryDy=0;fontSize=13;startArrow=classic;startFill=1;" edge="1" parent="1" source="z_WxewyYWtBV-kWWetse-3" target="z_WxewyYWtBV-kWWetse-13">
          <mxGeometry relative="1" as="geometry">
            <Array as="points">
              <mxPoint x="370" y="570" />
              <mxPoint x="370" y="300" />
              <mxPoint x="310" y="300" />
            </Array>
          </mxGeometry>
        </mxCell>
        <mxCell id="z_WxewyYWtBV-kWWetse-3" value="&lt;div&gt;Point duck&lt;br&gt;&lt;/div&gt;" style="rounded=1;whiteSpace=wrap;html=1;fontSize=13;arcSize=23;align=left;horizontal=1;verticalAlign=top;spacingTop=3;spacingLeft=8;" vertex="1" parent="1">
          <mxGeometry x="60" y="470" width="120" height="200" as="geometry" />
        </mxCell>
        <mxCell id="z_WxewyYWtBV-kWWetse-4" value="External game duck" style="rounded=1;whiteSpace=wrap;html=1;fontSize=13;" vertex="1" parent="1">
          <mxGeometry x="640" y="200" width="120" height="60" as="geometry" />
        </mxCell>
        <mxCell id="z_WxewyYWtBV-kWWetse-7" value="point&lt;br&gt;db" style="shape=cylinder3;whiteSpace=wrap;html=1;boundedLbl=1;backgroundOutline=1;size=15;fontSize=13;" vertex="1" parent="1">
          <mxGeometry x="90" y="530" width="60" height="80" as="geometry" />
        </mxCell>
        <mxCell id="z_WxewyYWtBV-kWWetse-8" value="base&lt;br&gt;db" style="shape=cylinder3;whiteSpace=wrap;html=1;boundedLbl=1;backgroundOutline=1;size=15;fontSize=13;" vertex="1" parent="1">
          <mxGeometry x="120" y="200" width="60" height="80" as="geometry" />
        </mxCell>
        <mxCell id="z_WxewyYWtBV-kWWetse-10" style="edgeStyle=orthogonalEdgeStyle;rounded=0;orthogonalLoop=1;jettySize=auto;html=1;entryX=0;entryY=0.5;entryDx=0;entryDy=0;fontSize=13;startArrow=classic;startFill=1;" edge="1" parent="1" source="z_WxewyYWtBV-kWWetse-9" target="z_WxewyYWtBV-kWWetse-13">
          <mxGeometry relative="1" as="geometry">
            <Array as="points">
              <mxPoint x="210" y="-60" />
              <mxPoint x="210" y="230" />
            </Array>
          </mxGeometry>
        </mxCell>
        <mxCell id="z_WxewyYWtBV-kWWetse-20" value="IRC" style="edgeLabel;html=1;align=center;verticalAlign=middle;resizable=0;points=[];fontSize=13;" vertex="1" connectable="0" parent="z_WxewyYWtBV-kWWetse-10">
          <mxGeometry x="-0.2754" y="-1" relative="1" as="geometry">
            <mxPoint y="-5" as="offset" />
          </mxGeometry>
        </mxCell>
        <mxCell id="z_WxewyYWtBV-kWWetse-9" value="Twitch IRC" style="shape=cube;whiteSpace=wrap;html=1;boundedLbl=1;backgroundOutline=1;darkOpacity=0.05;darkOpacity2=0.1;fontSize=13;" vertex="1" parent="1">
          <mxGeometry x="60" y="-100" width="120" height="80" as="geometry" />
        </mxCell>
        <mxCell id="z_WxewyYWtBV-kWWetse-12" style="edgeStyle=orthogonalEdgeStyle;rounded=0;orthogonalLoop=1;jettySize=auto;html=1;exitX=0;exitY=0;exitDx=120;exitDy=50;exitPerimeter=0;entryX=0.5;entryY=0;entryDx=0;entryDy=0;fontSize=13;startArrow=classic;startFill=1;" edge="1" parent="1" source="z_WxewyYWtBV-kWWetse-11" target="z_WxewyYWtBV-kWWetse-13">
          <mxGeometry relative="1" as="geometry" />
        </mxCell>
        <mxCell id="z_WxewyYWtBV-kWWetse-19" value="HTTP" style="edgeLabel;html=1;align=center;verticalAlign=middle;resizable=0;points=[];fontSize=13;" vertex="1" connectable="0" parent="z_WxewyYWtBV-kWWetse-12">
          <mxGeometry x="0.2903" y="-3" relative="1" as="geometry">
            <mxPoint x="3" y="5" as="offset" />
          </mxGeometry>
        </mxCell>
        <mxCell id="z_WxewyYWtBV-kWWetse-11" value="Twitch API" style="shape=cube;whiteSpace=wrap;html=1;boundedLbl=1;backgroundOutline=1;darkOpacity=0.05;darkOpacity2=0.1;fontSize=13;" vertex="1" parent="1">
          <mxGeometry x="60" y="-210" width="120" height="80" as="geometry" />
        </mxCell>
        <mxCell id="z_WxewyYWtBV-kWWetse-21" style="edgeStyle=orthogonalEdgeStyle;rounded=0;orthogonalLoop=1;jettySize=auto;html=1;exitX=0.5;exitY=1;exitDx=0;exitDy=0;entryX=0.5;entryY=0;entryDx=0;entryDy=0;fontSize=13;startArrow=classic;startFill=1;" edge="1" parent="1" source="z_WxewyYWtBV-kWWetse-13" target="z_WxewyYWtBV-kWWetse-18">
          <mxGeometry relative="1" as="geometry" />
        </mxCell>
        <mxCell id="z_WxewyYWtBV-kWWetse-23" style="edgeStyle=orthogonalEdgeStyle;rounded=0;orthogonalLoop=1;jettySize=auto;html=1;exitX=1;exitY=0.5;exitDx=0;exitDy=0;entryX=0;entryY=0.5;entryDx=0;entryDy=0;fontSize=13;startArrow=classic;startFill=1;" edge="1" parent="1" source="z_WxewyYWtBV-kWWetse-13" target="z_WxewyYWtBV-kWWetse-4">
          <mxGeometry relative="1" as="geometry" />
        </mxCell>
        <mxCell id="z_WxewyYWtBV-kWWetse-24" value="gRPC" style="edgeLabel;html=1;align=center;verticalAlign=middle;resizable=0;points=[];fontSize=13;" vertex="1" connectable="0" parent="z_WxewyYWtBV-kWWetse-23">
          <mxGeometry x="-0.0807" y="-5" relative="1" as="geometry">
            <mxPoint x="104" y="-5" as="offset" />
          </mxGeometry>
        </mxCell>
        <mxCell id="z_WxewyYWtBV-kWWetse-13" value="Bus" style="shape=hexagon;perimeter=hexagonPerimeter2;whiteSpace=wrap;html=1;fixedSize=1;fontSize=13;" vertex="1" parent="1">
          <mxGeometry x="235" y="190" width="120" height="80" as="geometry" />
        </mxCell>
        <mxCell id="z_WxewyYWtBV-kWWetse-15" value="" style="endArrow=none;html=1;rounded=0;fontSize=13;" edge="1" parent="1">
          <mxGeometry width="50" height="50" relative="1" as="geometry">
            <mxPoint x="560" y="829" as="sourcePoint" />
            <mxPoint x="560" y="-160" as="targetPoint" />
          </mxGeometry>
        </mxCell>
        <mxCell id="z_WxewyYWtBV-kWWetse-16" value="Server" style="text;html=1;strokeColor=none;fillColor=none;align=center;verticalAlign=middle;whiteSpace=wrap;rounded=0;fontSize=13;" vertex="1" parent="1">
          <mxGeometry x="500" y="40" width="60" height="30" as="geometry" />
        </mxCell>
        <mxCell id="z_WxewyYWtBV-kWWetse-17" value="Local" style="text;html=1;strokeColor=none;fillColor=none;align=center;verticalAlign=middle;whiteSpace=wrap;rounded=0;fontSize=13;" vertex="1" parent="1">
          <mxGeometry x="560" y="40" width="60" height="30" as="geometry" />
        </mxCell>
        <mxCell id="z_WxewyYWtBV-kWWetse-22" style="edgeStyle=orthogonalEdgeStyle;rounded=0;orthogonalLoop=1;jettySize=auto;html=1;exitX=0;exitY=0.5;exitDx=0;exitDy=0;entryX=0.5;entryY=1;entryDx=0;entryDy=0;entryPerimeter=0;fontSize=13;startArrow=classic;startFill=1;" edge="1" parent="1" source="z_WxewyYWtBV-kWWetse-18" target="z_WxewyYWtBV-kWWetse-8">
          <mxGeometry relative="1" as="geometry" />
        </mxCell>
        <mxCell id="z_WxewyYWtBV-kWWetse-18" value="Control message handler" style="rounded=1;whiteSpace=wrap;html=1;fontSize=13;" vertex="1" parent="1">
          <mxGeometry x="200" y="320" width="120" height="60" as="geometry" />
        </mxCell>
      </root>
    </mxGraphModel>
  </diagram>
</mxfile>
